<svg version="1.1" id="Layer_1" xmlns="http://www.w3.org/2000/svg" xmlns:xlink="http://www.w3.org/1999/xlink" x="0px" y="0px"
	 width="100%" viewBox="0 0 308 308" enable-background="new 0 0 308 308" xml:space="preserve">
<path fill="#DBCFB9" opacity="1.000000" stroke="none" 
	d="
M203.000000,1.000000 
	C204.066681,1.000000 205.133347,1.000000 206.708405,1.390247 
	C208.392303,2.191458 209.567047,2.958620 210.743515,2.961293 
	C240.185287,3.028187 269.627319,3.040444 299.068817,2.929684 
	C300.381622,2.924745 301.689728,1.671690 303.000000,0.999997 
	C304.913483,1.000000 306.826965,1.000000 309.000000,1.000000 
	C309.000000,2.663939 309.000000,4.333222 308.609314,6.608667 
	C307.807922,8.390216 307.041382,9.564795 307.038696,10.741113 
	C306.971893,40.183464 306.959625,69.626099 307.070374,99.068176 
	C307.075317,100.381187 308.328308,101.689499 309.000000,103.000000 
	C309.000000,104.066673 309.000000,105.133354 308.609314,106.707428 
	C307.807953,108.390221 307.041351,109.564804 307.038696,110.741112 
	C306.971863,140.183487 306.959564,169.626114 307.070312,199.068237 
	C307.075287,200.381226 308.328308,201.689529 309.000000,203.000000 
	C309.000000,204.066681 309.000000,205.133347 308.609314,206.707428 
	C307.807953,208.390228 307.041382,209.564804 307.038696,210.741119 
	C306.971832,240.183472 306.959564,269.626099 307.070343,299.068176 
	C307.075317,300.381195 308.328308,301.689514 309.000000,303.000000 
	C309.000000,304.913483 309.000000,306.826965 309.000000,309.000000 
	C307.336060,309.000000 305.666779,309.000000 303.391418,308.609161 
	C301.610321,307.806885 300.436066,307.038849 299.260071,307.036163 
	C269.816193,306.969269 240.372055,306.957062 210.928452,307.067932 
	C209.616547,307.072906 208.309372,308.327454 207.000000,309.000000 
	C205.933319,309.000000 204.866653,309.000000 203.292664,308.609161 
	C201.610321,307.806885 200.436066,307.038849 199.260086,307.036163 
	C169.816208,306.969269 140.372055,306.957031 110.928436,307.067932 
	C109.616554,307.072906 108.309372,308.327484 107.000000,309.000000 
	C105.933327,309.000000 104.866646,309.000000 103.292671,308.609161 
	C101.610313,307.806885 100.436058,307.038818 99.260071,307.036163 
	C69.816200,306.969238 40.372047,306.957062 10.928445,307.067932 
	C9.616556,307.072906 8.309373,308.327484 6.999999,309.000000 
	C5.086521,309.000000 3.173043,309.000000 1.000000,309.000000 
	C1.000000,307.336060 1.000000,305.666779 1.390327,303.390442 
	C2.192189,301.607971 2.960421,300.433350 2.963096,299.256989 
	C3.030060,269.813965 3.042279,240.370682 2.931428,210.927933 
	C2.926490,209.616211 1.672301,208.309204 1.000000,207.000000 
	C1.000000,205.933319 1.000000,204.866653 1.390329,203.291687 
	C2.192194,201.607956 2.960423,200.433350 2.963098,199.256989 
	C3.030058,169.813980 3.042279,140.370682 2.931428,110.927925 
	C2.926489,109.616211 1.672300,108.309204 1.000000,107.000000 
	C1.000000,105.933327 1.000000,104.866646 1.390332,103.291687 
	C2.192196,101.607971 2.960422,100.433357 2.963097,99.257004 
	C3.030058,69.813988 3.042279,40.370686 2.931428,10.927936 
	C2.926490,9.616219 1.672301,8.309205 1.000000,7.000000 
	C1.000000,5.086521 1.000000,3.173042 1.000000,1.000000 
	C2.663939,1.000000 4.333222,1.000000 6.609634,1.390243 
	C8.392307,2.191452 9.567041,2.958619 10.743513,2.961292 
	C40.185280,3.028187 69.627319,3.040445 99.068817,2.929692 
	C100.381615,2.924754 101.689713,1.671697 103.000000,1.000000 
	C104.066673,1.000000 105.133354,1.000000 106.708397,1.390242 
	C108.392311,2.191452 109.567047,2.958619 110.743523,2.961293 
	C140.185287,3.028187 169.627319,3.040445 199.068817,2.929691 
	C200.381607,2.924752 201.689713,1.671696 203.000000,1.000000 
M7.077319,81.499725 
	C7.077363,86.665085 7.320976,91.845474 7.003375,96.991234 
	C6.730233,101.416656 7.971369,103.068665 12.770495,103.031013 
	C40.928181,102.810089 69.089394,102.808044 97.247017,103.032478 
	C102.073151,103.070938 103.033531,101.361549 103.008110,96.979630 
	C102.845680,68.987785 102.843567,40.994041 103.009850,13.002235 
	C103.036034,8.595065 102.030037,6.928987 97.231461,6.966617 
	C69.073776,7.187430 40.912575,7.189353 12.754942,6.965283 
	C7.930151,6.926889 6.958272,8.634119 6.993577,13.017877 
	C7.174729,35.510628 7.077448,58.005615 7.077319,81.499725 
M251.500000,7.074914 
	C238.669952,7.074959 225.836945,7.231549 213.011490,6.988925 
	C208.607529,6.905614 206.930435,7.953086 206.968399,12.762275 
	C207.190659,40.919930 207.154495,69.080666 206.994537,97.239166 
	C206.970551,101.463409 207.940765,103.054031 212.514328,103.021988 
	C240.838974,102.823540 269.166016,102.858505 297.491394,102.994858 
	C301.475098,103.014038 303.036682,102.043365 303.011353,97.735497 
	C302.843689,69.243828 302.843353,40.750221 303.011505,12.258561 
	C303.036926,7.945816 301.470306,6.951459 297.487488,7.000809 
	C282.493652,7.186593 267.496124,7.075159 251.500000,7.074914 
M207.077316,237.500000 
	C207.077469,257.494843 207.164536,277.490417 207.004166,297.483978 
	C206.972244,301.462708 207.943939,303.034454 212.259186,303.008911 
	C240.750839,302.840424 269.244202,302.870422 297.736389,302.984192 
	C301.475677,302.999146 303.033966,302.135040 303.010345,297.990479 
	C302.846893,269.332123 302.877838,240.672241 302.983490,212.013336 
	C302.996613,208.462692 302.098907,206.988876 298.242889,207.006195 
	C269.417572,207.135651 240.591125,207.135300 211.765793,207.006439 
	C207.918213,206.989243 206.932022,208.441559 207.016953,212.007782 
	C207.211273,220.167709 207.077789,228.335434 207.077316,237.500000 
M95.359863,302.922668 
	C102.922127,302.908722 102.924782,302.908722 102.925049,295.367828 
	C102.926003,267.706116 102.850403,240.044006 103.005272,212.383179 
	C103.028496,208.236176 101.752403,206.973038 97.611877,206.995346 
	C69.284454,207.148117 40.955238,207.165054 12.628177,206.981705 
	C8.211031,206.953110 6.957294,208.255890 6.985435,212.645203 
	C7.165982,240.805649 7.176717,268.968536 6.978675,297.128723 
	C6.946124,301.757202 8.332352,303.050629 12.904777,303.018066 
	C40.065189,302.824646 67.227676,302.922546 95.359863,302.922668 
M102.924461,180.499695 
	C102.924431,158.688950 102.933357,136.878204 102.919403,115.067459 
	C102.914642,107.628822 102.377693,107.081039 95.025383,107.077103 
	C68.552765,107.062920 42.080128,107.070099 15.607499,107.072121 
	C7.466607,107.072746 7.293204,107.245987 7.086466,115.404358 
	C7.073816,115.903557 7.080173,116.403275 7.080167,116.902756 
	C7.079886,143.208893 7.073015,169.515015 7.084523,195.821152 
	C7.087497,202.618454 7.375476,202.912949 14.084065,202.916199 
	C40.390190,202.928894 66.696335,202.930588 93.002434,202.902832 
	C94.990982,202.900726 96.977173,202.577515 98.968132,202.506561 
	C101.939369,202.400696 102.983391,200.805069 102.939934,197.981903 
	C102.855385,192.488953 102.920891,186.993698 102.924461,180.499695 
M202.930283,25.501896 
	C202.930191,21.338829 202.685776,17.157461 202.995834,13.017621 
	C203.334549,8.494985 201.789017,6.906422 197.101776,6.969934 
	C179.453705,7.209069 161.800446,7.065223 144.149139,7.065691 
	C133.325226,7.065978 122.501305,7.071417 111.677391,7.066378 
	C109.181854,7.065216 107.344955,7.100520 107.374634,10.755361 
	C107.604515,39.059925 107.585838,67.366493 107.646965,95.672447 
	C107.661339,102.331047 107.666313,102.348183 114.210243,102.350883 
	C141.852829,102.362297 169.497879,102.176544 197.135696,102.542015 
	C201.993866,102.606262 203.043655,101.445885 203.010544,96.939186 
	C202.838058,73.460876 202.930099,49.980621 202.930283,25.501896 
M129.500168,207.065598 
	C123.338860,207.068512 117.177544,207.075409 111.016235,207.072235 
	C108.766914,207.071075 107.340805,207.491318 107.359261,210.420258 
	C107.538673,238.890945 107.570267,267.362549 107.647095,295.833893 
	C107.664642,302.334717 107.670120,302.348602 114.371651,302.351440 
	C142.014160,302.363190 169.658188,302.223846 197.297653,302.517029 
	C201.701080,302.563721 203.049759,301.802032 203.020767,297.277557 
	C202.840469,269.136597 202.830200,240.993179 203.027130,212.852432 
	C203.060349,208.106384 201.386566,206.948318 196.941483,206.984207 
	C174.795563,207.162964 152.647415,207.065826 129.500168,207.065598 
M202.930283,160.500000 
	C202.930267,144.846939 202.753098,129.190704 203.033997,113.542671 
	C203.122757,108.597801 201.819794,106.853020 196.629913,106.950821 
	C180.150146,107.261383 163.660843,107.065178 147.175217,107.065674 
	C135.352203,107.066032 123.529182,107.068481 111.706169,107.068184 
	C109.237411,107.068123 107.342293,107.045341 107.372276,110.726830 
	C107.601425,138.864716 107.586685,167.004623 107.645287,195.143890 
	C107.660278,202.341583 107.656136,202.347672 114.680794,202.352890 
	C142.489471,202.373550 170.299286,202.272217 198.105499,202.542542 
	C202.015366,202.580536 203.027420,201.630280 202.983749,197.967529 
	C202.838852,185.813202 202.929672,173.656067 202.930283,160.500000 
M239.500000,107.065620 
	C230.174805,107.067169 220.849609,107.061127 211.524445,107.075783 
	C209.282898,107.079308 207.333618,107.002304 207.356277,110.411713 
	C207.545364,138.882278 207.569931,167.353928 207.647049,195.825241 
	C207.664688,202.334427 207.669922,202.348572 214.363007,202.351425 
	C242.005524,202.363220 269.649506,202.225372 297.289032,202.515625 
	C301.676422,202.561707 303.050812,201.825790 303.021484,197.286163 
	C302.839539,169.145203 302.831116,141.001801 303.026550,112.861031 
	C303.059418,108.128036 301.408752,106.936363 296.949921,106.982841 
	C278.135040,107.178978 259.316925,107.065834 239.500000,107.065620 
z"/>
<path fill="#686E7D" opacity="1.000000" stroke="none" 
	d="
M207.468658,309.000000 
	C208.309372,308.327454 209.616547,307.072906 210.928452,307.067932 
	C240.372055,306.957062 269.816193,306.969269 299.260071,307.036163 
	C300.436066,307.038849 301.610321,307.806885 302.892700,308.609161 
	C271.312439,309.000000 239.624878,309.000000 207.468658,309.000000 
z"/>
<path fill="#686E7D" opacity="1.000000" stroke="none" 
	d="
M107.468658,309.000000 
	C108.309372,308.327484 109.616554,307.072906 110.928436,307.067932 
	C140.372055,306.957031 169.816208,306.969269 199.260086,307.036163 
	C200.436066,307.038849 201.610321,307.806885 202.892685,308.609161 
	C171.312439,309.000000 139.624878,309.000000 107.468658,309.000000 
z"/>
<path fill="#686E7D" opacity="1.000000" stroke="none" 
	d="
M7.468657,309.000000 
	C8.309373,308.327484 9.616556,307.072906 10.928445,307.067932 
	C40.372047,306.957062 69.816200,306.969238 99.260071,307.036163 
	C100.436058,307.038818 101.610313,307.806885 102.892685,308.609161 
	C71.312439,309.000000 39.624878,309.000000 7.468657,309.000000 
z"/>
<path fill="#686E7D" opacity="1.000000" stroke="none" 
	d="
M309.000000,302.531342 
	C308.328308,301.689514 307.075317,300.381195 307.070343,299.068176 
	C306.959564,269.626099 306.971832,240.183472 307.038696,210.741119 
	C307.041382,209.564804 307.807953,208.390228 308.609314,207.107422 
	C309.000000,238.687561 309.000000,270.375122 309.000000,302.531342 
z"/>
<path fill="#686E7D" opacity="1.000000" stroke="none" 
	d="
M1.000000,207.468658 
	C1.672301,208.309204 2.926490,209.616211 2.931428,210.927933 
	C3.042279,240.370682 3.030060,269.813965 2.963096,299.256989 
	C2.960421,300.433350 2.192189,301.607971 1.390327,302.891693 
	C1.000000,271.312439 1.000000,239.624878 1.000000,207.468658 
z"/>
<path fill="#686E7D" opacity="1.000000" stroke="none" 
	d="
M309.000000,202.531342 
	C308.328308,201.689529 307.075287,200.381226 307.070312,199.068237 
	C306.959564,169.626114 306.971863,140.183487 307.038696,110.741112 
	C307.041351,109.564804 307.807953,108.390221 308.609314,107.107414 
	C309.000000,138.687561 309.000000,170.375122 309.000000,202.531342 
z"/>
<path fill="#686E7D" opacity="1.000000" stroke="none" 
	d="
M1.000000,107.468658 
	C1.672300,108.309204 2.926489,109.616211 2.931428,110.927925 
	C3.042279,140.370682 3.030058,169.813980 2.963098,199.256989 
	C2.960423,200.433350 2.192194,201.607956 1.390329,202.891693 
	C1.000000,171.312439 1.000000,139.624878 1.000000,107.468658 
z"/>
<path fill="#686E7D" opacity="1.000000" stroke="none" 
	d="
M309.000000,102.531342 
	C308.328308,101.689499 307.075317,100.381187 307.070374,99.068176 
	C306.959625,69.626099 306.971893,40.183464 307.038696,10.741113 
	C307.041382,9.564795 307.807922,8.390216 308.609314,7.107414 
	C309.000000,38.687561 309.000000,70.375122 309.000000,102.531342 
z"/>
<path fill="#686E7D" opacity="1.000000" stroke="none" 
	d="
M1.000000,7.468657 
	C1.672301,8.309205 2.926490,9.616219 2.931428,10.927936 
	C3.042279,40.370686 3.030058,69.813988 2.963097,99.257004 
	C2.960422,100.433357 2.192196,101.607971 1.390332,102.891693 
	C1.000000,71.312439 1.000000,39.624878 1.000000,7.468657 
z"/>
<path fill="#686E7D" opacity="1.000000" stroke="none" 
	d="
M302.531342,0.999997 
	C301.689728,1.671690 300.381622,2.924745 299.068817,2.929684 
	C269.627319,3.040444 240.185287,3.028187 210.743515,2.961293 
	C209.567047,2.958620 208.392303,2.191458 207.108383,1.390247 
	C238.687561,1.000000 270.375122,1.000000 302.531342,0.999997 
z"/>
<path fill="#686E7D" opacity="1.000000" stroke="none" 
	d="
M202.531342,1.000000 
	C201.689713,1.671696 200.381607,2.924752 199.068817,2.929691 
	C169.627319,3.040445 140.185287,3.028187 110.743523,2.961293 
	C109.567047,2.958619 108.392311,2.191452 107.108383,1.390242 
	C138.687561,1.000000 170.375122,1.000000 202.531342,1.000000 
z"/>
<path fill="#686E7D" opacity="1.000000" stroke="none" 
	d="
M102.531342,1.000000 
	C101.689713,1.671697 100.381615,2.924754 99.068817,2.929692 
	C69.627319,3.040445 40.185280,3.028187 10.743513,2.961292 
	C9.567041,2.958619 8.392307,2.191452 7.108382,1.390243 
	C38.687561,1.000000 70.375122,1.000000 102.531342,1.000000 
z"/>
<path fill="#565F74" opacity="1.000000" stroke="none" 
	d="
M7.077383,80.999771 
	C7.077448,58.005615 7.174729,35.510628 6.993577,13.017877 
	C6.958272,8.634119 7.930151,6.926889 12.754942,6.965283 
	C40.912575,7.189353 69.073776,7.187430 97.231461,6.966617 
	C102.030037,6.928987 103.036034,8.595065 103.009850,13.002235 
	C102.843567,40.994041 102.845680,68.987785 103.008110,96.979630 
	C103.033531,101.361549 102.073151,103.070938 97.247017,103.032478 
	C69.089394,102.808044 40.928181,102.810089 12.770495,103.031013 
	C7.971369,103.068665 6.730233,101.416656 7.003375,96.991234 
	C7.320976,91.845474 7.077363,86.665085 7.077383,80.999771 
z"/>
<path fill="#565F74" opacity="1.000000" stroke="none" 
	d="
M252.000000,7.074977 
	C267.496124,7.075159 282.493652,7.186593 297.487488,7.000809 
	C301.470306,6.951459 303.036926,7.945816 303.011505,12.258561 
	C302.843353,40.750221 302.843689,69.243828 303.011353,97.735497 
	C303.036682,102.043365 301.475098,103.014038 297.491394,102.994858 
	C269.166016,102.858505 240.838974,102.823540 212.514328,103.021988 
	C207.940765,103.054031 206.970551,101.463409 206.994537,97.239166 
	C207.154495,69.080666 207.190659,40.919930 206.968399,12.762275 
	C206.930435,7.953086 208.607529,6.905614 213.011490,6.988925 
	C225.836945,7.231549 238.669952,7.074959 252.000000,7.074977 
z"/>
<path fill="#565F74" opacity="1.000000" stroke="none" 
	d="
M207.077377,237.000000 
	C207.077789,228.335434 207.211273,220.167709 207.016953,212.007782 
	C206.932022,208.441559 207.918213,206.989243 211.765793,207.006439 
	C240.591125,207.135300 269.417572,207.135651 298.242889,207.006195 
	C302.098907,206.988876 302.996613,208.462692 302.983490,212.013336 
	C302.877838,240.672241 302.846893,269.332123 303.010345,297.990479 
	C303.033966,302.135040 301.475677,302.999146 297.736389,302.984192 
	C269.244202,302.870422 240.750839,302.840424 212.259186,303.008911 
	C207.943939,303.034454 206.972244,301.462708 207.004166,297.483978 
	C207.164536,277.490417 207.077469,257.494843 207.077377,237.000000 
z"/>
<path fill="#565F74" opacity="1.000000" stroke="none" 
	d="
M94.874664,302.922607 
	C67.227676,302.922546 40.065189,302.824646 12.904777,303.018066 
	C8.332352,303.050629 6.946124,301.757202 6.978675,297.128723 
	C7.176717,268.968536 7.165982,240.805649 6.985435,212.645203 
	C6.957294,208.255890 8.211031,206.953110 12.628177,206.981705 
	C40.955238,207.165054 69.284454,207.148117 97.611877,206.995346 
	C101.752403,206.973038 103.028496,208.236176 103.005272,212.383179 
	C102.850403,240.044006 102.926003,267.706116 102.925049,295.367828 
	C102.924782,302.908722 102.922127,302.908722 94.874664,302.922607 
z"/>
<path fill="#7D928A" opacity="1.000000" stroke="none" 
	d="
M102.924347,180.999542 
	C102.920891,186.993698 102.855385,192.488953 102.939934,197.981903 
	C102.983391,200.805069 101.939369,202.400696 98.968132,202.506561 
	C96.977173,202.577515 94.990982,202.900726 93.002434,202.902832 
	C66.696335,202.930588 40.390190,202.928894 14.084065,202.916199 
	C7.375476,202.912949 7.087497,202.618454 7.084523,195.821152 
	C7.073015,169.515015 7.079886,143.208893 7.080167,116.902756 
	C7.080173,116.403275 7.073816,115.903557 7.086466,115.404358 
	C7.293204,107.245987 7.466607,107.072746 15.607499,107.072121 
	C42.080128,107.070099 68.552765,107.062920 95.025383,107.077103 
	C102.377693,107.081039 102.914642,107.628822 102.919403,115.067459 
	C102.933357,136.878204 102.924431,158.688950 102.924347,180.999542 
z"/>
<path fill="#7E938B" opacity="1.000000" stroke="none" 
	d="
M202.930176,26.001469 
	C202.930099,49.980621 202.838058,73.460876 203.010544,96.939186 
	C203.043655,101.445885 201.993866,102.606262 197.135696,102.542015 
	C169.497879,102.176544 141.852829,102.362297 114.210243,102.350883 
	C107.666313,102.348183 107.661339,102.331047 107.646965,95.672447 
	C107.585838,67.366493 107.604515,39.059925 107.374634,10.755361 
	C107.344955,7.100520 109.181854,7.065216 111.677391,7.066378 
	C122.501305,7.071417 133.325226,7.065978 144.149139,7.065691 
	C161.800446,7.065223 179.453705,7.209069 197.101776,6.969934 
	C201.789017,6.906422 203.334549,8.494985 202.995834,13.017621 
	C202.685776,17.157461 202.930191,21.338829 202.930176,26.001469 
z"/>
<path fill="#7E938B" opacity="1.000000" stroke="none" 
	d="
M130.000122,207.065704 
	C152.647415,207.065826 174.795563,207.162964 196.941483,206.984207 
	C201.386566,206.948318 203.060349,208.106384 203.027130,212.852432 
	C202.830200,240.993179 202.840469,269.136597 203.020767,297.277557 
	C203.049759,301.802032 201.701080,302.563721 197.297653,302.517029 
	C169.658188,302.223846 142.014160,302.363190 114.371651,302.351440 
	C107.670120,302.348602 107.664642,302.334717 107.647095,295.833893 
	C107.570267,267.362549 107.538673,238.890945 107.359261,210.420258 
	C107.340805,207.491318 108.766914,207.071075 111.016235,207.072235 
	C117.177544,207.075409 123.338860,207.068512 130.000122,207.065704 
z"/>
<path fill="#7E938B" opacity="1.000000" stroke="none" 
	d="
M202.930176,161.000000 
	C202.929672,173.656067 202.838852,185.813202 202.983749,197.967529 
	C203.027420,201.630280 202.015366,202.580536 198.105499,202.542542 
	C170.299286,202.272217 142.489471,202.373550 114.680794,202.352890 
	C107.656136,202.347672 107.660278,202.341583 107.645287,195.143890 
	C107.586685,167.004623 107.601425,138.864716 107.372276,110.726830 
	C107.342293,107.045341 109.237411,107.068123 111.706169,107.068184 
	C123.529182,107.068481 135.352203,107.066032 147.175217,107.065674 
	C163.660843,107.065178 180.150146,107.261383 196.629913,106.950821 
	C201.819794,106.853020 203.122757,108.597801 203.033997,113.542671 
	C202.753098,129.190704 202.930267,144.846939 202.930176,161.000000 
z"/>
<path fill="#7E938B" opacity="1.000000" stroke="none" 
	d="
M240.000000,107.065720 
	C259.316925,107.065834 278.135040,107.178978 296.949921,106.982841 
	C301.408752,106.936363 303.059418,108.128036 303.026550,112.861031 
	C302.831116,141.001801 302.839539,169.145203 303.021484,197.286163 
	C303.050812,201.825790 301.676422,202.561707 297.289032,202.515625 
	C269.649506,202.225372 242.005524,202.363220 214.363007,202.351425 
	C207.669922,202.348572 207.664688,202.334427 207.647049,195.825241 
	C207.569931,167.353928 207.545364,138.882278 207.356277,110.411713 
	C207.333618,107.002304 209.282898,107.079308 211.524445,107.075783 
	C220.849609,107.061127 230.174805,107.067169 240.000000,107.065720 
z"/>
</svg>